<svg xmlns="http://www.w3.org/2000/svg" viewBox="0 0 46.23 41.15"><defs><style>.cls-1{fill:#d5ecf2;}</style></defs><title>Asset 3</title><g id="Layer_2" data-name="Layer 2"><g id="Layer_1-2" data-name="Layer 1"><path class="cls-1" d="M12.17,0A11.89,11.89,0,0,0,3.55,3.71a12.88,12.88,0,0,0,0,17.76L22,40.72a1.57,1.57,0,0,0,2.17,0l18.5-19.24a12.89,12.89,0,0,0,0-17.76,11.91,11.91,0,0,0-17.24,0l-2.33,2.4L20.79,3.71A11.92,11.92,0,0,0,12.17,0Zm0,3a8.9,8.9,0,0,1,6.44,2.82L22,9.34a1.56,1.56,0,0,0,2.18,0l3.41-3.53a8.76,8.76,0,0,1,12.88,0,9.87,9.87,0,0,1,0,13.58Q31.8,28.45,23.11,37.5c-5.85-6-11.51-12.18-17.4-18.12a9.88,9.88,0,0,1,0-13.59A9.38,9.38,0,0,1,12.17,3Z"/></g></g></svg>