<?xml version="1.0" encoding="UTF-8"?>
<svg width="250px" height="30px" viewBox="0 0 250 30" version="1.1" xmlns="http://www.w3.org/2000/svg" xmlns:xlink="http://www.w3.org/1999/xlink">
    <!-- Generator: Sketch 52.6 (67491) - http://www.bohemiancoding.com/sketch -->
    <title>logo</title>
    <desc>Created with Sketch.</desc>
    <g id="Page-1" stroke="none" stroke-width="1" fill="none" fill-rule="evenodd">
        <g id="Artboard-Copy-8" transform="translate(-486.000000, -2058.000000)" fill="#FFEC00">
            <g id="logo" transform="translate(486.000000, 2058.000000)">
                <path d="M1.32427631e-15,29.4710327 L0,0.453400504 L19.2339332,0.453400504 L19.2339332,4.30730479 L4.47300771,4.30730479 L4.47300771,12.2418136 L17.4447301,12.2418136 L17.4447301,16.1712846 L4.47300771,16.1712846 L4.47300771,25.6926952 L20.1285347,25.6926952 L20.1285347,29.5465995 L0,29.5465995 L1.32427631e-15,29.4710327 Z M27.7326478,18.2115869 L27.7326478,0.453400504 L32.2056555,0.453400504 L32.2056555,17.7581864 C32.2056555,22.5188917 34.218509,26.1460957 40.4807198,26.1460957 C46.5192802,26.1460957 48.3084833,22.7455919 48.3084833,17.7581864 L48.3084833,0.453400504 L52.781491,0.453400504 L52.781491,18.2115869 C52.781491,25.0125945 48.9794344,30 40.033419,30 C31.2365039,30 27.7326478,24.4836272 27.7326478,18.2115869 Z M61.3547558,29.4710327 L61.3547558,0.453400504 L69.6298201,0.453400504 C77.4575835,0.453400504 81.7069409,3.17380353 81.7069409,8.91687657 C81.7069409,12.3173804 79.6940874,15.2644836 75.8920308,16.8513854 L84.8380463,29.093199 L84.8380463,29.5465995 L79.9177378,29.5465995 L72.0899743,18.5894207 L65.8277635,18.5894207 L65.8277635,29.5465995 L61.3547558,29.5465995 L61.3547558,29.4710327 Z M73.5064267,14.7355164 C75.5192802,13.6020151 77.3084833,12.0151134 77.3084833,9.06801008 C77.3084833,5.44080605 75.2956298,4.30730479 69.7043702,4.30730479 L65.9023136,4.30730479 L65.9023136,14.7355164 L73.5064267,14.7355164 Z M87.9691517,14.9622166 C87.9691517,7.25440806 93.1131105,0 103.028278,0 C112.868895,0 118.012853,7.25440806 118.012853,14.9622166 C118.012853,22.6700252 112.868895,29.9244332 103.028278,29.9244332 C93.1131105,30 87.9691517,22.7455919 87.9691517,14.9622166 Z M113.241645,14.9622166 C113.241645,8.61460957 109.663239,3.85390428 102.953728,3.85390428 C96.1696658,3.85390428 92.6658098,8.61460957 92.6658098,14.9622166 C92.6658098,21.3098237 96.2442159,26.070529 102.953728,26.070529 C109.737789,26.070529 113.241645,21.3098237 113.241645,14.9622166 Z M123.305913,28.186398 L123.305913,24.0302267 L123.753213,24.0302267 C126.437018,25.2392947 129.791774,26.070529 132.699229,26.070529 C137.843188,26.070529 140.303342,24.4836272 140.303342,21.7632242 C140.303342,19.0428212 138.215938,17.8337531 135.159383,16.7758186 L130.462725,15.1889169 C126.287918,13.7531486 124.200514,11.2594458 124.200514,7.70780856 C124.200514,2.72040302 128.897172,5.32907052e-15 135.606684,5.32907052e-15 C138.290488,5.32907052e-15 142.316195,0.680100756 144.179949,1.58690176 L144.179949,5.44080605 L143.732648,5.44080605 C141.123393,4.45843829 137.768638,3.85390428 135.681234,3.85390428 C131.357326,3.85390428 128.748072,4.68513854 128.748072,7.48110831 C128.748072,9.97481108 130.686375,10.8060453 132.997429,11.5617128 L137.470437,13.1486146 C141.719794,14.5843829 144.8509,16.7758186 144.8509,21.5365239 C144.8509,26.7506297 140.154242,30 132.773779,30 C129.120823,30 125.989717,29.2443325 123.305913,28.186398 Z M159.835476,29.4710327 L159.835476,4.30730479 L149.547558,4.30730479 L149.547558,0.453400504 L174.372751,0.453400504 L174.372751,4.30730479 L164.308483,4.30730479 L164.308483,29.5465995 L159.835476,29.5465995 L159.835476,29.4710327 Z M174.596401,29.4710327 L174.596401,29.0176322 L185.77892,0.377833753 L191.37018,0.377833753 L201.881748,29.0176322 L201.881748,29.4710327 L197.18509,29.4710327 L194.426735,21.7632242 L181.753213,21.7632242 L178.845758,29.4710327 L174.596401,29.4710327 Z M193.010283,17.9848866 L188.164524,4.53400504 L183.095116,17.9848866 L193.010283,17.9848866 Z M208.51671,29.4710327 L208.51671,0.453400504 L216.791774,0.453400504 C224.619537,0.453400504 228.868895,3.17380353 228.868895,8.91687657 C228.868895,12.3173804 226.856041,15.2644836 223.053985,16.8513854 L232,29.093199 L232,29.5465995 L227.079692,29.5465995 L219.251928,18.5894207 L212.989717,18.5894207 L212.989717,29.5465995 L208.51671,29.5465995 L208.51671,29.4710327 Z M220.59383,14.7355164 C222.606684,13.6020151 224.395887,12.0151134 224.395887,9.06801008 C224.395887,5.44080605 222.383033,4.30730479 216.791774,4.30730479 L212.989717,4.30730479 L212.989717,14.7355164 L220.59383,14.7355164 Z" id="Shape" fill-rule="nonzero"></path>
                <polygon id="Path" points="237.16 9 237.16 2.40206186 235 2.40206186 235 1 241 1 241 2.40206186 238.84 2.40206186 238.84 9"></polygon>
                <polygon id="Path" points="248.291262 9 248.291262 3.72164948 246.349515 6.93814433 245.495146 6.93814433 243.553398 3.72164948 243.553398 9 242 9 242 1 243.864078 1 246.116505 4.79381443 248.368932 1 250 1 250 9"></polygon>
            </g>
        </g>
    </g>
</svg>