<svg xmlns="http://www.w3.org/2000/svg" viewBox="0 0 68.38 56.14"><defs><style>.cls-1{fill:none;}.cls-2{fill:#fbdd0f;}.cls-3{fill:#24b5c9;}</style></defs><title>favorieteVerhalen</title><g id="Layer_2" data-name="Layer 2"><g id="Layer_1-2" data-name="Layer 1"><path class="cls-1" d="M45.65,27.28h.06c.1-.68.21-1.3.35-1.87l-.07.07C45.86,26,45.75,26.63,45.65,27.28Z"/><path class="cls-2" d="M23.77,34.23,23,28.28l.93-.2a16.21,16.21,0,0,0,5.58-2.68A13.45,13.45,0,0,1,36,22.62c2.58-.35,4.21.08,7.24,2.15l.48.35.37-.46a11.25,11.25,0,0,1,4-3.34,9.41,9.41,0,0,0-2,4.16l.07-.07a9.69,9.69,0,0,1,2-4.19,8.1,8.1,0,0,1,1.69-.5A14.35,14.35,0,0,0,47.5,4.14a13.26,13.26,0,0,0-19.19,0L25.73,6.82l-2.59-2.7A13.28,13.28,0,0,0,13.54,0h0A13.26,13.26,0,0,0,4,4.12,14.35,14.35,0,0,0,4,23.89L24.5,45.32a1.69,1.69,0,0,0,.91.46L23.87,34.35Z"/><path class="cls-2" d="M33.85,36.26c-.14.33-.27.65-.41,1h0c.15-.35.3-.69.44-1a17.24,17.24,0,0,1,2.41-4.46l-.07.08A17.45,17.45,0,0,0,33.85,36.26Z"/><path class="cls-3" d="M64.62,22.6a15.83,15.83,0,0,1-7-1.06,13.47,13.47,0,0,0-7-1l-.76.14a14.11,14.11,0,0,1-2.3,3.19l-1.44,1.5c-.14.57-.25,1.19-.35,1.87h-.06s0,.06,0,.1c-.55,0-1,0-1.53.06L40,31.76a14.11,14.11,0,0,1,2.35.55A14.11,14.11,0,0,0,40,31.76l-4.84,5a13.79,13.79,0,0,1,7.64.33,13.79,13.79,0,0,0-7.64-.33l-3,3.12a12.94,12.94,0,0,1-1.82,2l0,0-3.35,3.49a1.72,1.72,0,0,1-1.51.46L26.8,56.14a14.2,14.2,0,0,0,5.95-2.68,15,15,0,0,1,7.07-3c2.68-.37,4.78.21,7.66,2.09,2.29-2.58,4.16-3.68,6.84-4a15,15,0,0,1,7.62,1,14.07,14.07,0,0,0,6.44,1ZM38.29,40.9a15.47,15.47,0,0,0-9.82,4.63,15.47,15.47,0,0,1,9.82-4.63,14.33,14.33,0,0,1,5.27.69A14.33,14.33,0,0,0,38.29,40.9ZM50.76,30.65a15.37,15.37,0,0,1,10.75,1.5,15.37,15.37,0,0,0-10.75-1.5,14.64,14.64,0,0,0-4.83,2.23A14.64,14.64,0,0,1,50.76,30.65ZM51,35.92a15.44,15.44,0,0,1,10.75,1.5A15.44,15.44,0,0,0,51,35.92a14.45,14.45,0,0,0-4.83,2.23A14.45,14.45,0,0,1,51,35.92ZM51.16,40a14.45,14.45,0,0,0-4.83,2.22A14.45,14.45,0,0,1,51.16,40,15.44,15.44,0,0,1,61.91,41.5,15.44,15.44,0,0,0,51.16,40Z"/><path class="cls-3" d="M37,31.62l-.7.07v0a17.24,17.24,0,0,0-2.41,4.46c-.14.35-.29.69-.44,1l.26-.1-.05.11a14.92,14.92,0,0,1,1.43-.43l4.84-5A14.37,14.37,0,0,0,37,31.62Z"/><path class="cls-3" d="M46.06,25.41l1.44-1.5a14.11,14.11,0,0,0,2.3-3.19,8.1,8.1,0,0,0-1.69.5A9.69,9.69,0,0,0,46.06,25.41Z"/><path class="cls-3" d="M36.34,31.69l.7-.07a14.37,14.37,0,0,1,2.92.14l4.15-4.32a9.54,9.54,0,0,0-6,2.42A14.08,14.08,0,0,0,36.34,31.69Z"/><path class="cls-3" d="M32.12,39.91l3-3.12a14.92,14.92,0,0,0-1.43.43A13.9,13.9,0,0,1,32.12,39.91Z"/><path class="cls-3" d="M26.92,45.32l3.35-3.49-1.6-1.7c-.44.38-.78.7-1,.93.22-.23.56-.55,1-.93l-.22-.24.17-.12-4.75-5.42,1.54,11.43A1.72,1.72,0,0,0,26.92,45.32Z"/><path class="cls-3" d="M30.44,41.68a11.52,11.52,0,0,0,1-1.1l-1,1.09Z"/><path class="cls-3" d="M33.37,37.39A15.94,15.94,0,0,0,28.93,40l1.5,1.72,1-1.09a13.34,13.34,0,0,0,2-3.28l0-.09h0C33.42,37.28,33.39,37.34,33.37,37.39Z"/><path class="cls-3" d="M30.44,41.68h0l-.16.16,0,0a12.94,12.94,0,0,0,1.82-2l-.65.67A11.52,11.52,0,0,1,30.44,41.68Z"/><path class="cls-3" d="M28.62,39.77l-.17.12.22.24.15-.12Z"/><path class="cls-3" d="M33.69,37.22l.05-.11-.26.1,0,.09Z"/><path class="cls-3" d="M33.45,37.3a13.34,13.34,0,0,1-2,3.28l.65-.67a13.9,13.9,0,0,0,1.57-2.69Z"/><path class="cls-3" d="M28.93,40l-.1.07h0l-.15.12,1.6,1.7.16-.16Z"/><path class="cls-3" d="M44.2,27.35c.46,0,.94-.06,1.45-.07.1-.65.21-1.24.34-1.8Z"/><path class="cls-3" d="M28.72,39.7a18.32,18.32,0,0,1,4.72-2.48c.14-.31.27-.63.41-1a17.45,17.45,0,0,1,2.41-4.47,15.55,15.55,0,0,0-9.12,4.56,15.55,15.55,0,0,1,9.12-4.56l.07-.08v0a14.09,14.09,0,0,1,1.83-1.93,9.48,9.48,0,0,1,6-2.41L46,25.48a9.41,9.41,0,0,1,2-4.16,11.25,11.25,0,0,0-4,3.34l-.37.46-.48-.35c-3-2.07-4.66-2.5-7.24-2.15a13.45,13.45,0,0,0-6.51,2.78,16.21,16.21,0,0,1-5.58,2.68l0,.12,0-.12-.93.2.8,5.95.1.12,0-.22Z"/><path class="cls-3" d="M44.11,27.44c.48,0,1-.06,1.53-.06,0,0,0-.07,0-.1-.51,0-1,0-1.45.07Z"/><path class="cls-3" d="M36.34,31.69h0v0Z"/><path class="cls-3" d="M38.17,29.76a14.09,14.09,0,0,0-1.83,1.93h0a14.08,14.08,0,0,1,1.75-1.83,9.54,9.54,0,0,1,6-2.42l.09-.09A9.48,9.48,0,0,0,38.17,29.76Z"/><path class="cls-3" d="M23.84,34.13l0,.22,4.75,5.42.1-.07Z"/><path class="cls-3" d="M33.44,37.22a18.32,18.32,0,0,0-4.72,2.48l.19.23,0,0a15.94,15.94,0,0,1,4.44-2.56S33.42,37.28,33.44,37.22Z"/><path class="cls-3" d="M28.91,39.93l-.19-.23-.1.07.2.24Z"/><path class="cls-3" d="M28.82,40h0l.1-.07,0,0Z"/></g></g></svg>