<svg xmlns="http://www.w3.org/2000/svg" viewBox="0 0 68.72 68.72"><defs><style>.cls-1{fill:#0f9eb2;}.cls-2{fill:#d5ecf2;}</style></defs><title>Asset 2</title><g id="Layer_2" data-name="Layer 2"><g id="Layer_1-2" data-name="Layer 1"><circle class="cls-1" cx="34.36" cy="34.36" r="34.36"/><path class="cls-2" d="M23.91,16.12a11.92,11.92,0,0,0-8.63,3.71,12.9,12.9,0,0,0,0,17.76L33.75,56.84a1.57,1.57,0,0,0,2.17,0L54.42,37.6a12.89,12.89,0,0,0,0-17.76,11.93,11.93,0,0,0-17.25,0l-2.32,2.41-2.32-2.42a11.92,11.92,0,0,0-8.62-3.71Zm0,3a8.89,8.89,0,0,1,6.43,2.83l3.43,3.54a1.56,1.56,0,0,0,2.18,0l3.41-3.53a8.75,8.75,0,0,1,12.87,0,9.85,9.85,0,0,1,0,13.58q-8.7,9.06-17.38,18.11c-5.85-6-11.52-12.18-17.4-18.12a9.87,9.87,0,0,1,0-13.58A9.33,9.33,0,0,1,23.91,19.09Z"/></g></g></svg>