<?xml version="1.0" encoding="UTF-8"?>
<svg width="28px" height="28px" viewBox="0 0 28 28" version="1.1" xmlns="http://www.w3.org/2000/svg" xmlns:xlink="http://www.w3.org/1999/xlink">
    <!-- Generator: Sketch 52.6 (67491) - http://www.bohemiancoding.com/sketch -->
    <title>Group 13</title>
    <desc>Created with Sketch.</desc>
    <g id="Page-1" stroke="none" stroke-width="1" fill="none" fill-rule="evenodd">
        <g id="Artboard" transform="translate(-1661.000000, -1442.000000)" fill-rule="nonzero">
            <g id="Group-10" transform="translate(1397.000000, 1301.000000)">
                <g id="Group-9" transform="translate(264.581856, 141.970752)">
                    <g id="Group-13">
                        <circle id="Oval-Copy-2" fill="#D3F1F5" cx="13.4442" cy="13.4442" r="13.4442"></circle>
                        <path d="M5.6874218,7.88709093 C3.83929505,9.79619265 3.84147474,12.8576929 5.6874218,14.7682495 L13.099569,22.4419908 C13.1881155,22.5340806 13.311288,22.586256 13.440141,22.586256 C13.5689941,22.586256 13.6921665,22.5340806 13.7807131,22.4419908 C16.2541788,19.8868516 18.726707,17.3306287 21.2001962,14.7754665 C23.0482759,12.8663163 23.0482759,9.80343264 21.2001962,7.89429633 C19.3520696,5.98516464 16.3246323,5.98511852 14.4765291,7.89429633 L13.4437973,8.95349038 L12.4110889,7.88709093 C11.4870139,6.93252393 10.2685155,6.453216 9.04924362,6.453216 C7.82997178,6.453216 6.61144995,6.93252162 5.6874218,7.88709093 Z M9.04924362,7.36109661 C10.0156939,7.36109661 10.9864801,7.74560912 11.7372573,8.52116628 L13.1068815,9.94062349 C13.1954287,10.0327207 13.3186063,10.0849009 13.4474653,10.0849009 C13.5763242,10.0849009 13.6995018,10.0327207 13.788049,9.94062349 L15.1503607,8.52837168 C16.6518918,6.97722739 19.0174976,6.97725968 20.5190287,8.52837168 C22.0205363,10.0794745 22.0205363,12.5902514 20.5190287,14.1413911 C18.1598682,16.5784539 15.8029577,19.0177994 13.4437973,21.4548623 L6.36856589,14.1341742 C4.86808949,12.5811669 4.86705824,10.0722345 6.36856589,8.52116628 C7.11931972,7.74561143 8.08279338,7.36109661 9.04924362,7.36109661 Z" id="Shape" fill="#0F9EB2"></path>
                    </g>
                </g>
            </g>
        </g>
    </g>
</svg>