<?xml version="1.0" encoding="UTF-8"?>
<svg width="20px" height="17px" viewBox="0 0 20 17" version="1.1" xmlns="http://www.w3.org/2000/svg" xmlns:xlink="http://www.w3.org/1999/xlink">
    <!-- Generator: Sketch 52.6 (67491) - http://www.bohemiancoding.com/sketch -->
    <title>Group 17</title>
    <desc>Created with Sketch.</desc>
    <g id="Page-1" stroke="none" stroke-width="1" fill="none" fill-rule="evenodd">
        <g id="Artboard" transform="translate(-1665.000000, -1449.000000)" fill="#D0021B" fill-rule="nonzero">
            <g id="Group-15" transform="translate(1397.000000, 1301.000000)">
                <g id="Group-10">
                    <g id="Group-9" transform="translate(264.581856, 141.970752)">
                        <g id="Group-13">
                            <g id="Group-17" transform="translate(4.000000, 6.000000)">
                                <path d="M1.6874218,1.88709093 C-0.160704954,3.79619265 -0.158525255,6.85769288 1.6874218,8.76824952 L9.09956896,16.4419908 C9.18811553,16.5340806 9.31128796,16.586256 9.44014101,16.586256 C9.56899406,16.586256 9.69216649,16.5340806 9.78071306,16.4419908 C12.2541788,13.8868516 14.726707,11.3306287 17.2001962,8.77546645 C19.0482759,6.86631631 19.0482759,3.80343264 17.2001962,1.89429633 C15.3520696,-0.0148353635 12.3246323,-0.014881478 10.4765291,1.89429633 L9.44379728,2.95349038 L8.41108889,1.88709093 C7.48701387,0.93252393 6.26851547,0.453216 5.04924362,0.453216 C3.82997178,0.453216 2.61144995,0.932521624 1.6874218,1.88709093 Z M5.04924362,1.36109661 C6.01569386,1.36109661 6.98648006,1.74560912 7.73725733,2.52116628 L9.1068815,3.94062349 C9.19542874,4.03272068 9.31860629,4.08490091 9.44746527,4.08490091 C9.57632424,4.08490091 9.69950179,4.03272068 9.78804903,3.94062349 L11.1503607,2.52837168 C12.6518918,0.977227395 15.0174976,0.977259675 16.5190287,2.52837168 C18.0205363,4.07947446 18.0205363,6.59025143 16.5190287,8.1413911 C14.1598682,10.5784539 11.8029577,13.0177994 9.44379728,15.4548623 L2.36856589,8.13417417 C0.868089494,6.58116686 0.867058239,4.07223447 2.36856589,2.52116628 C3.11931972,1.74561143 4.08279338,1.36109661 5.04924362,1.36109661 Z" id="Shape"></path>
                                <g id="Group-16" transform="translate(0.418144, 1.029248)" stroke="#D0021B">
                                    <polygon id="Triangle" transform="translate(9.000000, 8.000000) rotate(180.000000) translate(-9.000000, -8.000000) " points="9 2 16.5 14 1.5 14"></polygon>
                                    <path d="M9.23588345,2.38577393 C7.18773515,0.778716898 5.69999683,-0.0164550656 4.77266851,0.000258036316 C3.42418996,0.0245614668 2.16663379,0.81973343 1,2.38577393" id="Path-5"></path>
                                    <path d="M17.2358835,2.38577393 C15.1877351,0.778716898 13.6999968,-0.0164550656 12.7726685,0.000258036316 C11.42419,0.0245614668 10.1666338,0.81973343 9,2.38577393" id="Path-5-Copy"></path>
                                    <path d="M1.12929075,2.41181399 C-0.222664486,4.9548383 2.40347659,8.98173222 9.00771398,14.4924957" id="Path-11"></path>
                                    <path d="M9.34459629,2 C7.99264105,4.54302431 10.6187821,8.56991822 17.2230195,14.0806817" id="Path-11" transform="translate(13.111510, 8.040341) scale(-1, 1) translate(-13.111510, -8.040341) "></path>
                                </g>
                            </g>
                        </g>
                    </g>
                </g>
            </g>
        </g>
    </g>
</svg>