<svg xmlns="http://www.w3.org/2000/svg" viewBox="0 0 73.82 72.32"><defs><style>.cls-1{fill:#24b5c9;}.cls-2{fill:#384664;}.cls-3{fill:#fff;}.cls-4{fill:#fbdd0f;}</style></defs><title>mijnReis</title><g id="Layer_2" data-name="Layer 2"><g id="Layer_1-2" data-name="Layer 1"><circle class="cls-1" cx="50.98" cy="49.48" r="22.84"/><path class="cls-2" d="M4,3.35H50.18a4,4,0,0,1,4,4V50.87a4,4,0,0,1-4,4H4a4,4,0,0,1-4-4V7.5A4.11,4.11,0,0,1,4,3.35Z"/><path class="cls-1" d="M54.33,18.46V7.5a4,4,0,0,0-4-4H4.15A4,4,0,0,0,0,7.5v11Z"/><path class="cls-2" d="M13.5,7V1.73A1.7,1.7,0,0,0,11.77,0,1.79,1.79,0,0,0,9.92,1.73V7Z"/><path class="cls-2" d="M44.41,7V1.73a1.73,1.73,0,0,0-3.46,0V7Z"/><circle class="cls-3" cx="10.84" cy="29.87" r="3.35"/><circle class="cls-3" cx="10.84" cy="42.33" r="3.35"/><circle class="cls-3" cx="27.11" cy="29.87" r="3.35"/><path class="cls-4" d="M31.84,49.48A19.09,19.09,0,0,1,51,30.34a16.56,16.56,0,0,1,3.35.34v-3.8A22.8,22.8,0,0,0,28.84,55h3.8A18.62,18.62,0,0,1,31.84,49.48Z"/><circle class="cls-2" cx="50.98" cy="49.48" r="19.15"/><path class="cls-1" d="M54,39.1a2.17,2.17,0,0,0-2.19,2.08l-.12,11.07H46.6a2.19,2.19,0,0,0-2.19,2.19h0a2.18,2.18,0,0,0,2.19,2.19h7.15a2.17,2.17,0,0,0,2.19-2.07v-.69l.12-12.46A2.28,2.28,0,0,0,54,39.1Z"/></g></g></svg>