<svg xmlns="http://www.w3.org/2000/svg" viewBox="0 0 56.46 58.8"><defs><style>.cls-1,.cls-4{fill:#384664;}.cls-2{fill:#24b5c9;}.cls-3{fill:none;}.cls-3,.cls-4{stroke:#fff;stroke-miterlimit:10;stroke-width:0.75px;}.cls-5{fill:#fbdd0f;}</style></defs><title>mijnVerhalen</title><g id="Layer_2" data-name="Layer 2"><g id="Layer_1-2" data-name="Layer 1"><path class="cls-1" d="M12.34,35.24a13.84,13.84,0,0,1,3.08-9.14,12.79,12.79,0,0,1,3.72-3,12.79,12.79,0,0,0-3.72,3,13.84,13.84,0,0,0-3.08,9.14,14.66,14.66,0,0,0,4.13-3.73,12.05,12.05,0,0,1,4.9-4.05c2.13-.95,3.64-1,6.78,0l.5.17.2-.49a10.28,10.28,0,0,1,2.57-3.89,10,10,0,0,1,.64-1.2,13.49,13.49,0,0,1,5.11-4.65,12.52,12.52,0,0,0,4.42-3.84L20.2,0a14.07,14.07,0,0,1-4.8,4.23A12.09,12.09,0,0,0,10.68,8.5c-1.25,2-1.51,3.46-1,6.71l.1.52-.52.13c-3.17.89-4.41,1.75-5.66,3.73a12,12,0,0,0-1.85,6.08A14.07,14.07,0,0,1,0,31.82l13.79,8.75-2.2-4.92C11.85,35.52,12.1,35.38,12.34,35.24ZM23,17.2a13,13,0,0,0-1.55,4.52A13,13,0,0,1,23,17.2a13.82,13.82,0,0,1,7.64-6.06A13.82,13.82,0,0,0,23,17.2Zm-2.74-2.44A13.93,13.93,0,0,1,27.84,8.7a13.93,13.93,0,0,0-7.63,6.06,12.61,12.61,0,0,0-1.55,4.52A12.61,12.61,0,0,1,20.21,14.76ZM5.66,30.43a13.86,13.86,0,0,1,3.08-9.25,12.83,12.83,0,0,1,3.72-3,12.83,12.83,0,0,0-3.72,3A13.86,13.86,0,0,0,5.66,30.43Zm6.48-6.56a13,13,0,0,1,3.72-3,13,13,0,0,0-3.72,3,13.86,13.86,0,0,0-3.08,9.25A13.86,13.86,0,0,1,12.14,23.87Z"/><path class="cls-2" d="M46.11,20.28a13.91,13.91,0,0,1-6.34.88,12.13,12.13,0,0,0-6.28,1,7.55,7.55,0,0,0-2,1.18A9.83,9.83,0,0,0,31,29.13c-3,.89-4.57,2-5.87,4.06a12.88,12.88,0,0,0-1.08,2.12l.58-.23a12.8,12.8,0,0,1,4.72-.75,12.8,12.8,0,0,0-4.72.75l-.58.23a15.67,15.67,0,0,0-.95,4.48L23,40.88a12.32,12.32,0,0,1,3.26-1.77A12.8,12.8,0,0,1,31,38.36a12.8,12.8,0,0,0-4.72.75A12.32,12.32,0,0,0,23,40.88a11.74,11.74,0,0,1-1.47,4.54L19.75,44.3A13.32,13.32,0,0,0,19,45.59a13.32,13.32,0,0,1,.78-1.29l-5.84-3.71L22.05,58.8A12.53,12.53,0,0,0,26.49,55a13.53,13.53,0,0,1,5.34-4.38c2.21-1,4.17-1,7.13-.14,1.32-2.81,2.65-4.24,4.87-5.22a13.39,13.39,0,0,1,6.82-1.06,12.8,12.8,0,0,0,5.81-.76Zm-18,22.48a13.82,13.82,0,0,0-7.28,6.48,13.82,13.82,0,0,1,7.28-6.48A12.59,12.59,0,0,1,32.8,42,12.59,12.59,0,0,0,28.08,42.76Zm4.54-8.86a12.89,12.89,0,0,1,3.6-3.15,13.92,13.92,0,0,1,9.64-1.45,13.92,13.92,0,0,0-9.64,1.45A12.89,12.89,0,0,0,32.62,33.9Zm1.56,4.48a12.89,12.89,0,0,1,3.6-3.15,13.86,13.86,0,0,1,9.64-1.45,13.86,13.86,0,0,0-9.64,1.45A12.89,12.89,0,0,0,34.18,38.38Zm4.76.33a12.69,12.69,0,0,0-3.59,3.15,12.69,12.69,0,0,1,3.59-3.15,13.87,13.87,0,0,1,9.64-1.45A13.87,13.87,0,0,0,38.94,38.71Z"/><path class="cls-2" d="M19.38,44.32l2.11,1.23a11.86,11.86,0,0,0,1.75-5A16.48,16.48,0,0,0,19.38,44.32Z"/><path class="cls-3" d="M24.26,5.6a13.85,13.85,0,0,0-7.64,6.06,12.76,12.76,0,0,0-1.54,4.52"/><path class="cls-4" d="M7.11,31.45a13.86,13.86,0,0,1,3.08-9.25,12.83,12.83,0,0,1,3.72-3,12.83,12.83,0,0,0-3.72,3A13.86,13.86,0,0,0,7.11,31.45Z"/><path class="cls-4" d="M10.51,34a13.86,13.86,0,0,1,3.08-9.25,13,13,0,0,1,3.72-3,13,13,0,0,0-3.72,3A13.86,13.86,0,0,0,10.51,34Z"/><path class="cls-4" d="M13.91,36.55A14,14,0,0,1,17,27.3a12.87,12.87,0,0,1,3.72-3,12.87,12.87,0,0,0-3.72,3A14,14,0,0,0,13.91,36.55Z"/><path class="cls-3" d="M27.84,9.4a13.84,13.84,0,0,0-7.63,6.06A12.61,12.61,0,0,0,18.66,20"/><path class="cls-3" d="M31.39,12.89A13.85,13.85,0,0,0,23.75,19a13,13,0,0,0-1.55,4.52"/><path class="cls-3" d="M44.41,26.73A13.84,13.84,0,0,0,35,29.4,12.93,12.93,0,0,0,31.87,33"/><path class="cls-4" d="M18.66,44a13.85,13.85,0,0,1,6.39-7.37,12.86,12.86,0,0,1,4.58-1.34,12.86,12.86,0,0,0-4.58,1.34A13.85,13.85,0,0,0,18.66,44Z"/><path class="cls-4" d="M20.84,47.67a13.84,13.84,0,0,1,6.39-7.36A12.7,12.7,0,0,1,31.81,39a12.7,12.7,0,0,0-4.58,1.35A13.84,13.84,0,0,0,20.84,47.67Z"/><path class="cls-4" d="M22.36,53.59a13.83,13.83,0,0,1,6.39-7.36,12.7,12.7,0,0,1,4.58-1.35,12.7,12.7,0,0,0-4.58,1.35A13.83,13.83,0,0,0,22.36,53.59Z"/><path class="cls-3" d="M46.26,31.61a13.85,13.85,0,0,0-9.38,2.67,13.1,13.1,0,0,0-3.16,3.58"/><path class="cls-3" d="M48.2,36.19a13.9,13.9,0,0,0-9.38,2.67,12.81,12.81,0,0,0-3.16,3.59"/><path class="cls-5" d="M23,40.88l.12-1.09a15.67,15.67,0,0,1,.95-4.48,14,14,0,0,0-6.7,6.25,14,14,0,0,1,6.7-6.25,12.88,12.88,0,0,1,1.08-2.12c1.3-2.06,2.91-3.17,5.87-4.06a9.83,9.83,0,0,1,.53-5.83A10,10,0,0,0,29,27.18l-.21.5-.5-.18c-3.13-1-4.64-1-6.78,0a12.11,12.11,0,0,0-4.9,4,14.37,14.37,0,0,1-4.13,3.73v0c-.24.14-.49.28-.75.41l2.2,4.92,5.84,3.71A14.35,14.35,0,0,1,23,40.88Z"/></g></g></svg>