<?xml version="1.0" encoding="UTF-8"?>
<svg width="80px" height="16px" viewBox="0 0 80 16" version="1.1" xmlns="http://www.w3.org/2000/svg" xmlns:xlink="http://www.w3.org/1999/xlink">
    <!-- Generator: Sketch 52.6 (67491) - http://www.bohemiancoding.com/sketch -->
    <title>Group</title>
    <desc>Created with Sketch.</desc>
    <g id="Page-1" stroke="none" stroke-width="1" fill="none" fill-rule="evenodd">
        <g id="Artboard" transform="translate(-1416.000000, -1613.000000)" fill-rule="nonzero">
            <g id="Group-10" transform="translate(1397.000000, 1301.000000)">
                <g id="Group-3">
                    <g id="Group" transform="translate(19.359648, 312.228101)">
                        <polygon id="Star-Copy-10" fill="#FFE633" points="7.7438592 12.3417756 3.19213297 14.8843212 4.06143532 9.4991232 0.379011447 5.6853048 5.46799608 4.899615 7.7438592 0 10.0197223 4.899615 15.108707 5.6853048 11.4262831 9.4991232 12.2955854 14.8843212"></polygon>
                        <polygon id="Star-Copy-11" fill="#FFE633" points="23.2315776 12.3417756 18.6798514 14.8843212 19.5491537 9.4991232 15.8667298 5.6853048 20.9557145 4.899615 23.2315776 0 25.5074407 4.899615 30.5964254 5.6853048 26.9140015 9.4991232 27.7833038 14.8843212"></polygon>
                        <polygon id="Star-Copy-12" stroke="#FFE633" stroke-width="0.9679824" fill="#FFE633" points="39.6872784 12.3417756 35.1355522 14.8843212 36.0048545 9.4991232 32.3224306 5.6853048 37.4114153 4.899615 39.6872784 0 41.9631415 4.899615 47.0521262 5.6853048 43.3697023 9.4991232 44.2390046 14.8843212"></polygon>
                        <path d="M59.0895193,13.9740054 L58.3410201,9.33716444 L61.5428368,6.021102 L57.1210273,5.33841757 L55.1749968,1.14888611 L53.2289663,5.33841757 L48.8071568,6.021102 L52.0089735,9.33716444 L51.2604743,13.9740054 L55.1749968,11.787395 L59.0895193,13.9740054 Z" id="Star-Copy-13" stroke="#FFE633" stroke-width="0.9679824" fill="#FFE633"></path>
                        <path d="M75.5452201,13.9740054 L74.7967209,9.33716444 L77.9985376,6.021102 L73.5767281,5.33841757 L71.6306976,1.14888611 L69.6846671,5.33841757 L65.2628576,6.021102 L68.4646743,9.33716444 L67.7161751,13.9740054 L71.6306976,11.787395 L75.5452201,13.9740054 Z" id="Star-Copy-14" stroke="#FFE633" stroke-width="0.9679824"></path>
                    </g>
                </g>
            </g>
        </g>
    </g>
</svg>