<svg xmlns="http://www.w3.org/2000/svg" viewBox="0 0 74.87 89.73"><defs><style>.cls-1{fill:#384664;}.cls-2{fill:#24b5c9;}.cls-3{fill:#fbdd0f;}</style></defs><title>trein</title><g id="Layer_2" data-name="Layer 2"><g id="Layer_1-2" data-name="Layer 1"><path class="cls-1" d="M66.32,23.13C64.35,13.46,61.13,0,36.45,0,12.2,0,8.83,13.18,6.73,22.71,5.47,28.32,5.47,46.13,5.89,51.6,6.87,61.41,11.64,75,25,75H48.09C61.83,75,66.46,61.55,67.3,51.88,67.72,46.41,67.58,28.6,66.32,23.13ZM24.12,52a3.65,3.65,0,1,1,0-7.29,3.71,3.71,0,0,1,3.64,3.64A3.62,3.62,0,0,1,24.12,52Zm25,0a3.65,3.65,0,0,1,0-7.29,3.65,3.65,0,1,1,0,7.29ZM36.59,35.89c-10.79,0-19.77-7.29-19.77-15.14,0-4.21,8.84-7.57,19.63-7.57s19.49,3.36,19.63,7.43C55.94,28.46,47.39,35.89,36.59,35.89Z"/><polygon class="cls-2" points="44.45 63.37 30.42 63.37 0 89.73 74.87 89.73 44.45 63.37"/><path class="cls-3" d="M44.44,63.37h-14L18.51,73.75A15.56,15.56,0,0,0,25,75H48.09a18.42,18.42,0,0,0,7.71-1.68Z"/></g></g></svg>