<svg xmlns="http://www.w3.org/2000/svg" viewBox="0 0 58.72 78.47"><defs><style>.cls-1{fill:none;}.cls-2{fill:#384664;}.cls-3{fill:#24b5c9;}.cls-4{fill:#55565a;}</style></defs><title>treinHotel</title><g id="Layer_2" data-name="Layer 2"><g id="Layer_1-2" data-name="Layer 1"><path class="cls-1" d="M44.18,35.26a2.88,2.88,0,0,0,0,5.75,2.88,2.88,0,1,0,0-5.75Z"/><path class="cls-1" d="M30.2,27.82a18.78,18.78,0,0,0,4.15.48c8.51,0,15.25-5.86,15.36-12-.11-3.21-7-5.86-15.48-5.86s-15.47,2.65-15.47,6a7.36,7.36,0,0,0,.06.82C22.63,17.91,28.34,20.26,30.2,27.82Z"/><path class="cls-2" d="M57.78,18.24C56.23,10.61,53.69,0,34.23,0,15.52,0,12.58,10,10.91,17.42a17,17,0,0,1,4.5-.57,18.79,18.79,0,0,1,3.41.33,7.36,7.36,0,0,1-.06-.82c0-3.32,7-6,15.47-6S49.6,13,49.71,16.25C49.6,22.44,42.86,28.3,34.35,28.3a18.78,18.78,0,0,1-4.15-.48,22.69,22.69,0,0,1,.61,5.58c0,3.7,0,15.58,0,25.74H43.41c10.83,0,14.48-10.62,15.14-18.24C58.88,36.59,58.77,22.55,57.78,18.24ZM44.18,41a2.88,2.88,0,0,1,0-5.75,2.88,2.88,0,1,1,0,5.75Z"/><path class="cls-3" d="M21.57,32A6.41,6.41,0,0,0,19,26.62a6.12,6.12,0,0,0-7.31.09A7,7,0,0,0,10,29.15c-.09,4.66,0,9.34.16,11.53.06.65.15,1.33.26,2,2.59-.88,5.09-1.74,5.53-1.91C20.42,39,21.57,35,21.57,32Z"/><path class="cls-4" d="M10.91,17.42c-3.83,1-8.78,3.9-10,12-.7,5.72,2,6.07,2.82,6.25s5.19.53,5.46-3A10.38,10.38,0,0,1,10,29.15a71.29,71.29,0,0,1,.82-11.24C10.84,17.74,10.87,17.58,10.91,17.42Z"/><path class="cls-3" d="M30.2,27.82c-1.86-7.56-7.57-9.91-11.38-10.64C19.31,22,24,26.42,30.2,27.82Z"/><path class="cls-4" d="M10.4,42.7,4.14,44.84s-4,1.15-4,4.93c0,4-.09,25.44-.09,25.44a2.92,2.92,0,0,0,3,3.17c3.17,0,19.81.09,24,.09,3.87,0,3.69-3.26,3.69-3.26s0-7.41,0-16.07H25.17C15.56,59.14,11.6,50.16,10.4,42.7Z"/><path class="cls-4" d="M24.51,35.26a2.88,2.88,0,1,0,2.87,2.87A2.93,2.93,0,0,0,24.51,35.26Z"/><path class="cls-4" d="M30.2,27.82C24,26.42,19.31,22,18.82,17.18a18.79,18.79,0,0,0-3.41-.33,17,17,0,0,0-4.5.57c0,.16-.07.32-.11.49A71.29,71.29,0,0,0,10,29.15a7,7,0,0,1,1.73-2.44A6.12,6.12,0,0,1,19,26.62,6.41,6.41,0,0,1,21.57,32c0,3-1.15,7-5.64,8.8-.44.17-2.94,1-5.53,1.91,1.2,7.46,5.16,16.44,14.77,16.44h5.59c0-10.16,0-22,0-25.74A22.69,22.69,0,0,0,30.2,27.82ZM24.51,41a2.88,2.88,0,1,1,0-5.75,2.93,2.93,0,0,1,2.87,2.87A2.85,2.85,0,0,1,24.51,41Z"/></g></g></svg>