<?xml version="1.0" encoding="UTF-8"?>
<svg width="40px" height="56px" viewBox="0 0 40 56" version="1.1" xmlns="http://www.w3.org/2000/svg" xmlns:xlink="http://www.w3.org/1999/xlink">
    <!-- Generator: Sketch 52.6 (67491) - http://www.bohemiancoding.com/sketch -->
    <title>Group 22</title>
    <desc>Created with Sketch.</desc>
    <g id="Page-1" stroke="none" stroke-width="1" fill="none" fill-rule="evenodd">
        <g id="Artboard-Copy-25" transform="translate(-3294.000000, -3004.000000)" fill="#9B9B9B">
            <g id="Group-15" transform="translate(3175.000000, 2934.000000)">
                <g id="Group-21" transform="translate(119.000000, 70.000000)">
                    <g id="Group-Copy">
                        <g id="Group-3-Copy-2">
                            <g id="Group-22">
                                <path d="M3.749545,50.6578384 L19.00396,41.0155333 C19.6134417,40.6264811 20.3865135,40.6264811 20.9959952,41.0155333 L36.2489625,50.6578384 L36.2489625,5.72673047 C36.2489625,4.63620537 35.4469367,3.81683786 34.374191,3.81683786 L5.62576421,3.81683786 C4.55446621,3.81683786 3.749545,4.63620537 3.749545,5.72673047 L3.749545,50.6578384 Z M1.79659769,55.9866746 C0.791893883,55.9439378 -0.00144572184,55.102465 1.9781732e-06,54.0782556 L1.9781732e-06,5.72673047 C1.9781732e-06,2.58631291 2.54071549,-3.55271368e-15 5.62576421,-3.55271368e-15 L34.374191,-3.55271368e-15 C37.457792,-3.55271368e-15 39.9999532,2.58631291 39.9999532,5.72673047 L39.9999532,54.0782556 C40.0071917,55.1319387 39.1733165,55.9925693 38.138211,55.9999377 C37.7806291,56.0028851 37.4317334,55.901201 37.1291641,55.7081485 L19.9999776,44.8927922 L2.8722388,55.7081485 C2.54940169,55.9085694 2.17444739,56.0058324 1.79659769,55.9866746 Z" id="Fill-1"></path>
                                <polygon id="Path-3-Copy" stroke="#9B9B9B" fill-rule="nonzero" points="13.5 16 23.5 16 23.5 36 19.0746056 31.3325557 13.5 36"></polygon>
                            </g>
                        </g>
                    </g>
                </g>
            </g>
        </g>
    </g>
</svg>